<svg width="300" height="319" viewBox="0 0 300 319" fill="none" xmlns="http://www.w3.org/2000/svg">
<g clip-path="url(#clip0_54_144)">
<mask id="mask0_54_144" style="mask-type:alpha" maskUnits="userSpaceOnUse" x="13" y="45" width="274" height="274">
<path d="M150 318.121C225.312 318.121 286.364 257.08 286.364 181.783C286.364 106.486 225.312 45.4458 150 45.4458C74.6884 45.4458 13.6364 106.486 13.6364 181.783C13.6364 257.08 74.6884 318.121 150 318.121Z" fill="white"/>
</mask>
<g mask="url(#mask0_54_144)">
<path d="M150 318.121C225.312 318.121 286.364 257.08 286.364 181.783C286.364 106.486 225.312 45.4458 150 45.4458C74.6884 45.4458 13.6364 106.486 13.6364 181.783C13.6364 257.08 74.6884 318.121 150 318.121Z" fill="#E6E6E6"/>
<g filter="url(#filter0_i_54_144)">
<path d="M286.364 45.4458H13.6364V318.121H286.364V45.4458Z" fill="#55BCA5"/>
<path d="M286.364 45.4458H13.6364V318.121H286.364V45.4458Z" fill="black" fill-opacity="0.2"/>
</g>
</g>
<mask id="mask1_54_144" style="mask-type:alpha" maskUnits="userSpaceOnUse" x="0" y="0" width="300" height="319">
<path d="M13.6364 181.783C13.6364 257.08 74.6884 318.121 150 318.121C225.312 318.121 286.364 257.08 286.364 181.783H300V0H0V181.783H13.6364Z" fill="white"/>
</mask>
<g mask="url(#mask1_54_144)">
<mask id="mask2_54_144" style="mask-type:alpha" maskUnits="userSpaceOnUse" x="36" y="40" width="228" height="279">
<path d="M177.273 205.2V226.093H181.818C227.005 226.093 263.636 262.717 263.636 307.896V318.121H36.3636V307.896C36.3636 262.717 72.9949 226.093 118.182 226.093H122.727V205.2C103.139 195.897 89.0594 176.883 86.7104 154.381C80.0913 153.445 75 147.758 75 140.882V124.976C75 118.221 79.9143 112.613 86.3636 111.531V104.525C86.3636 69.3868 114.855 40.9012 150 40.9012C185.145 40.9012 213.636 69.3868 213.636 104.525V111.531C220.086 112.613 225 118.221 225 124.976V140.882C225 147.758 219.909 153.445 213.29 154.381C210.941 176.883 196.861 195.897 177.273 205.2Z" fill="white"/>
</mask>
<g mask="url(#mask2_54_144)">
<path d="M177.273 205.2V226.093H181.818C227.005 226.093 263.636 262.717 263.636 307.896V318.121H36.3636V307.896C36.3636 262.717 72.9949 226.093 118.182 226.093H122.727V205.2C103.139 195.897 89.0594 176.883 86.7104 154.381C80.0913 153.445 75 147.758 75 140.882V124.976C75 118.221 79.9143 112.613 86.3636 111.531V104.525C86.3636 69.3868 114.855 40.9012 150 40.9012C185.145 40.9012 213.636 69.3868 213.636 104.525V111.531C220.086 112.613 225 118.221 225 124.976V140.882C225 147.758 219.909 153.445 213.29 154.381C210.941 176.883 196.861 195.897 177.273 205.2Z" fill="#D0C6AC"/>
<path d="M336.364 40.9012H36.3636V359.022H336.364V40.9012Z" fill="#EDB98A"/>
<path fill-rule="evenodd" clip-rule="evenodd" d="M213.636 130.657V156.788C213.636 191.927 185.145 220.412 150 220.412C114.855 220.412 86.3636 191.927 86.3636 156.788V130.657V147.699C86.3636 182.838 114.855 211.323 150 211.323C185.145 211.323 213.636 182.838 213.636 147.699V130.657Z" fill="black" fill-opacity="0.1"/>
</g>
<mask id="mask3_54_144" style="mask-type:alpha" maskUnits="userSpaceOnUse" x="36" y="207" width="228" height="112">
<path fill-rule="evenodd" clip-rule="evenodd" d="M122.727 207.995C102.365 210.273 86.6817 216.495 86.3684 232.507C56.9846 244.917 36.3636 273.998 36.3636 307.895V318.121H263.636V307.895C263.636 273.998 243.015 244.917 213.632 232.507C213.318 216.495 197.635 210.273 177.273 207.995V229.501C177.273 244.561 165.062 256.769 150 256.769C134.938 256.769 122.727 244.561 122.727 229.501V207.995Z" fill="white"/>
</mask>
<g mask="url(#mask3_54_144)">
<path fill-rule="evenodd" clip-rule="evenodd" d="M122.727 207.995C102.365 210.273 86.6817 216.495 86.3684 232.507C56.9846 244.917 36.3636 273.998 36.3636 307.895V318.121H263.636V307.895C263.636 273.998 243.015 244.917 213.632 232.507C213.318 216.495 197.635 210.273 177.273 207.995V229.501C177.273 244.561 165.062 256.769 150 256.769C134.938 256.769 122.727 244.561 122.727 229.501V207.995Z" fill="#B7C1DB"/>
<path d="M300 193.145H0V318.121H300V193.145Z" fill="#FF5C5C"/>
<path fill-rule="evenodd" clip-rule="evenodd" d="M115.909 263.289V318.121H107.955V259.212C110.459 260.7 113.121 262.064 115.909 263.289ZM192.045 259.212V305.055C192.045 307.251 190.265 309.032 188.068 309.032C185.872 309.032 184.091 307.251 184.091 305.055V263.289C186.879 262.064 189.541 260.7 192.045 259.212Z" fill="#F4F4F4"/>
<path fill-rule="evenodd" clip-rule="evenodd" d="M103.364 207.602C86.2606 210.836 74.4318 217.28 74.4318 229.851C74.4318 252.247 111.975 270.403 150 270.403C188.025 270.403 225.568 252.247 225.568 229.851C225.568 217.28 213.739 210.836 196.636 207.602C206.96 211.408 213.636 217.806 213.636 228.453C213.636 251.621 182.021 270.403 150 270.403C117.979 270.403 86.3636 251.621 86.3636 228.453C86.3636 217.806 93.0399 211.408 103.364 207.602Z" fill="black" fill-opacity="0.16"/>
</g>
<mask id="mask4_54_144" style="mask-type:alpha" maskUnits="userSpaceOnUse" x="128" y="167" width="44" height="22">
<path fill-rule="evenodd" clip-rule="evenodd" d="M128.543 169.431C129.745 180.215 138.893 188.6 150 188.6C161.141 188.6 170.311 180.163 171.468 169.331C171.561 168.459 170.587 167.013 169.367 167.013C152.442 167.013 139.475 167.013 130.78 167.013C129.553 167.013 128.423 168.352 128.543 169.431Z" fill="white"/>
</mask>
<g mask="url(#mask4_54_144)">
<path fill-rule="evenodd" clip-rule="evenodd" d="M128.543 169.431C129.745 180.215 138.893 188.6 150 188.6C161.141 188.6 170.311 180.163 171.468 169.331C171.561 168.459 170.587 167.013 169.367 167.013C152.442 167.013 139.475 167.013 130.78 167.013C129.553 167.013 128.423 168.352 128.543 169.431Z" fill="black" fill-opacity="0.7"/>
<path d="M162.5 154.516H138.636C135.498 154.516 132.955 157.059 132.955 160.197V167.013C132.955 170.151 135.498 172.694 138.636 172.694H162.5C165.638 172.694 168.182 170.151 168.182 167.013V160.197C168.182 157.059 165.638 154.516 162.5 154.516Z" fill="white"/>
<path d="M144.318 204.506C151.222 204.506 156.818 198.911 156.818 192.009C156.818 185.106 151.222 179.511 144.318 179.511C137.415 179.511 131.818 185.106 131.818 192.009C131.818 198.911 137.415 204.506 144.318 204.506Z" fill="#FF4F6D"/>
<path d="M155.682 204.506C162.585 204.506 168.182 198.911 168.182 192.009C168.182 185.106 162.585 179.511 155.682 179.511C148.778 179.511 143.182 185.106 143.182 192.009C143.182 198.911 148.778 204.506 155.682 204.506Z" fill="#FF4F6D"/>
</g>
<path fill-rule="evenodd" clip-rule="evenodd" d="M136.364 147.699C136.364 152.719 142.469 156.788 150 156.788C157.531 156.788 163.636 152.719 163.636 147.699" fill="black" fill-opacity="0.16"/>
<path fill-rule="evenodd" clip-rule="evenodd" d="M104.727 127.757C106.826 123.441 111.55 120.431 117.043 120.431C122.516 120.431 127.226 123.419 129.336 127.711C129.962 128.986 129.071 130.029 128.171 129.256C125.386 126.862 121.43 125.367 117.043 125.367C112.792 125.367 108.947 126.77 106.179 129.034C105.167 129.862 104.114 129.019 104.727 127.757Z" fill="black" fill-opacity="0.6"/>
<path fill-rule="evenodd" clip-rule="evenodd" d="M170.637 127.757C172.735 123.441 177.46 120.431 182.952 120.431C188.425 120.431 193.135 123.419 195.245 127.711C195.871 128.986 194.98 130.029 194.08 129.256C191.295 126.862 187.339 125.367 182.952 125.367C178.701 125.367 174.857 126.77 172.088 129.034C171.076 129.862 170.023 129.019 170.637 127.757Z" fill="black" fill-opacity="0.6"/>
<path fill-rule="evenodd" clip-rule="evenodd" d="M116.531 100.149C109.932 100.454 99.2639 105.248 99.5388 111.901C99.5479 112.119 99.8678 112.215 100.024 112.047C103.155 108.685 125.382 105.288 133.212 107.088C133.928 107.253 134.472 106.546 134.019 106.036C130.13 101.664 122.443 99.8707 116.531 100.149Z" fill="black" fill-opacity="0.6"/>
<path fill-rule="evenodd" clip-rule="evenodd" d="M184.605 100.149C191.204 100.454 201.872 105.248 201.598 111.901C201.588 112.119 201.269 112.215 201.112 112.047C197.982 108.685 175.754 105.288 167.925 107.088C167.208 107.253 166.664 106.546 167.118 106.036C171.007 101.664 178.693 99.8707 184.605 100.149Z" fill="black" fill-opacity="0.6"/>
<mask id="mask5_54_144" style="mask-type:alpha" maskUnits="userSpaceOnUse" x="0" y="0" width="300" height="319">
<path d="M300 0H0V318.121H300V0Z" fill="white"/>
</mask>
<g mask="url(#mask5_54_144)">
<mask id="mask6_54_144" style="mask-type:alpha" maskUnits="userSpaceOnUse" x="79" y="11" width="143" height="103">
<path fill-rule="evenodd" clip-rule="evenodd" d="M207.591 44.2515C213.734 38.6273 215.213 27.2238 211.725 19.825C207.442 10.7409 198.752 9.6029 190.423 13.5981C182.573 17.3644 175.585 18.619 166.989 16.7942C158.741 15.0433 150.915 11.9552 142.39 11.4481C128.384 10.6149 114.777 15.809 105.231 26.2782C103.41 28.2754 101.942 30.5591 100.555 32.8737C99.445 34.7257 98.1938 36.7127 97.7217 38.8473C97.497 39.8623 97.9151 42.3667 97.4095 43.1984C96.8626 44.0964 94.8005 44.9202 93.9216 45.5866C92.1412 46.937 90.5986 48.4611 89.172 50.1848C86.1424 53.845 84.4747 57.6681 83.0721 62.1958C78.4097 77.244 78.0146 95.1423 84.042 109.918C84.8454 111.889 87.3353 115.999 88.7991 111.779C89.0883 110.946 88.4189 108.151 88.4205 107.309C88.4257 104.219 90.1319 83.7582 97.5649 72.2964C99.9844 68.5655 111.17 54.5944 113.455 54.4823C114.666 56.4056 126.955 68.6942 158.845 67.254C173.233 66.6042 184.298 60.1409 186.956 57.3391C188.124 63.6252 201.72 73.036 203.791 76.9082C209.776 88.0941 211.103 111.337 213.388 111.294C215.672 111.25 217.312 105.343 217.782 104.215C221.272 95.8358 221.867 85.3187 221.494 76.3131C221.009 64.7221 216.223 52.1968 207.591 44.2515Z" fill="white"/>
</mask>
<g mask="url(#mask6_54_144)">
<path fill-rule="evenodd" clip-rule="evenodd" d="M207.591 44.2515C213.734 38.6273 215.213 27.2238 211.725 19.825C207.442 10.7409 198.752 9.6029 190.423 13.5981C182.573 17.3644 175.585 18.619 166.989 16.7942C158.741 15.0433 150.915 11.9552 142.39 11.4481C128.384 10.6149 114.777 15.809 105.231 26.2782C103.41 28.2754 101.942 30.5591 100.555 32.8737C99.445 34.7257 98.1938 36.7127 97.7217 38.8473C97.497 39.8623 97.9151 42.3667 97.4095 43.1984C96.8626 44.0964 94.8005 44.9202 93.9216 45.5866C92.1412 46.937 90.5986 48.4611 89.172 50.1848C86.1424 53.845 84.4747 57.6681 83.0721 62.1958C78.4097 77.244 78.0146 95.1423 84.042 109.918C84.8454 111.889 87.3353 115.999 88.7991 111.779C89.0883 110.946 88.4189 108.151 88.4205 107.309C88.4257 104.219 90.1319 83.7582 97.5649 72.2964C99.9844 68.5655 111.17 54.5944 113.455 54.4823C114.666 56.4056 126.955 68.6942 158.845 67.254C173.233 66.6042 184.298 60.1409 186.956 57.3391C188.124 63.6252 201.72 73.036 203.791 76.9082C209.776 88.0941 211.103 111.337 213.388 111.294C215.672 111.25 217.312 105.343 217.782 104.215C221.272 95.8358 221.867 85.3187 221.494 76.3131C221.009 64.7221 216.223 52.1968 207.591 44.2515Z" fill="#28354B"/>
<path d="M298.864 0H-1.13635V318.121H298.864V0Z" fill="#4A312C"/>
</g>
</g>
</g>
</g>
<defs>
<filter id="filter0_i_54_144" x="13.6364" y="15.4458" width="272.727" height="302.675" filterUnits="userSpaceOnUse" color-interpolation-filters="sRGB">
<feFlood flood-opacity="0" result="BackgroundImageFix"/>
<feBlend mode="normal" in="SourceGraphic" in2="BackgroundImageFix" result="shape"/>
<feColorMatrix in="SourceAlpha" type="matrix" values="0 0 0 0 0 0 0 0 0 0 0 0 0 0 0 0 0 0 127 0" result="hardAlpha"/>
<feOffset dy="-66"/>
<feGaussianBlur stdDeviation="15"/>
<feComposite in2="hardAlpha" operator="arithmetic" k2="-1" k3="1"/>
<feColorMatrix type="matrix" values="0 0 0 0 0 0 0 0 0 0 0 0 0 0 0 0 0 0 0.15 0"/>
<feBlend mode="normal" in2="shape" result="effect1_innerShadow_54_144"/>
</filter>
<clipPath id="clip0_54_144">
<rect width="300" height="318.121" fill="white"/>
</clipPath>
</defs>
</svg>
