<svg width="1920" height="257" viewBox="0 0 1920 257" fill="none" preserveAspectRatio="none" xmlns="http://www.w3.org/2000/svg">
<path fill-rule="evenodd" clip-rule="evenodd" d="M1920 138.774L1884 143.11C1849 147.929 1778 157.084 1707 138.774C1636 119.981 1564 73.7235 1493 64.5683C1422 55.4131 1351 83.3606 1280 78.5421C1209 73.7236 1138 37.1027 1067 32.2842C996 27.4656 924 55.4131 853 73.7235C782 92.5158 711 101.671 640 87.6973C569 73.7236 498 37.1027 427 37.1027C356 37.1027 284 73.7235 213 73.7235C142 73.7235 71 37.1027 36 18.3104L0 0V257.5H36C71 257.5 142 257.5 213 257.5C284 257.5 356 257.5 427 257.5C498 257.5 569 257.5 640 257.5C711 257.5 782 257.5 853 257.5C924 257.5 996 257.5 1067 257.5C1138 257.5 1209 257.5 1280 257.5C1351 257.5 1422 257.5 1493 257.5C1564 257.5 1636 257.5 1707 257.5C1778 257.5 1849 257.5 1884 257.5H1920V138.774Z" fill="#F5F5F5"/>
<path fill-rule="evenodd" clip-rule="evenodd" d="M1920 138.774L1884 143.11C1849 147.929 1778 157.084 1707 138.774C1636 119.981 1564 73.7235 1493 64.5683C1422 55.4131 1351 83.3606 1280 78.5421C1209 73.7236 1138 37.1027 1067 32.2842C996 27.4656 924 55.4131 853 73.7235C782 92.5158 711 101.671 640 87.6973C569 73.7236 498 37.1027 427 37.1027C356 37.1027 284 73.7235 213 73.7235C142 73.7235 71 37.1027 36 18.3104L0 0V257.5H36C71 257.5 142 257.5 213 257.5C284 257.5 356 257.5 427 257.5C498 257.5 569 257.5 640 257.5C711 257.5 782 257.5 853 257.5C924 257.5 996 257.5 1067 257.5C1138 257.5 1209 257.5 1280 257.5C1351 257.5 1422 257.5 1493 257.5C1564 257.5 1636 257.5 1707 257.5C1778 257.5 1849 257.5 1884 257.5H1920V138.774Z" fill="#55BCA5" fill-opacity="0.3"/>
</svg>
