<svg width="1920" height="202" viewBox="0 0 1920 202" fill="none" preserveAspectRatio="none" xmlns="http://www.w3.org/2000/svg">
<path fill-rule="evenodd" clip-rule="evenodd" d="M0 26.2573L46 21.907C91 17.0734 183 7.88958 274 17.0734C366 26.2573 457 54.2922 549 54.2922C640 54.2922 731 26.2573 823 12.7232C914 -1.29427 1006 -1.29427 1097 3.05597C1189 7.88958 1280 17.0734 1371 35.9245C1463 54.2922 1554 82.3271 1646 100.695C1737 119.062 1829 128.73 1874 133.08L1920 137.914V202H1874C1829 202 1737 202 1646 202C1554 202 1463 202 1371 202C1280 202 1189 202 1097 202C1006 202 914 202 823 202C731 202 640 202 549 202C457 202 366 202 274 202C183 202 91 202 46 202H0L0 26.2573Z" fill="#F5F5F5"/>
</svg>
