<svg width="1920" height="251" viewBox="0 0 1920 251" fill="none" preserveAspectRatio="none" xmlns="http://www.w3.org/2000/svg">
<path fill-rule="evenodd" clip-rule="evenodd" d="M0 260L80 209.341C160 158.683 320 57.3654 480 38.3685C640 19.3715 800 82.6948 960 76.3624C1120 70.0301 1280 -5.95786 1440 0.37447C1600 6.7068 1760 95.3594 1840 139.686L1920 184.012V260H1840C1760 260 1600 260 1440 260C1280 260 1120 260 960 260C800 260 640 260 480 260C320 260 80 260 0 260Z" fill="#F5F5F5"/>
<path fill-rule="evenodd" clip-rule="evenodd" d="M0 260L80 209.341C160 158.683 320 57.3654 480 38.3685C640 19.3715 800 82.6948 960 76.3624C1120 70.0301 1280 -5.95786 1440 0.37447C1600 6.7068 1760 95.3594 1840 139.686L1920 184.012V260H1840C1760 260 1600 260 1440 260C1280 260 1120 260 960 260C800 260 640 260 480 260C320 260 80 260 0 260Z" fill="#55BCA5" fill-opacity="0.1"/>
</svg>
